<?xml version="1.0" encoding="utf-8" standalone="no"?>
<!DOCTYPE svg PUBLIC "-//W3C//DTD SVG 1.1//EN"
  "http://www.w3.org/Graphics/SVG/1.1/DTD/svg11.dtd">
<svg height="313.771687pt" version="1.1" viewBox="0 0 417.367188 313.771687" width="417.367188pt" xmlns="http://www.w3.org/2000/svg" xmlns:xlink="http://www.w3.org/1999/xlink">
 <metadata>
  <rdf:RDF xmlns:cc="http://creativecommons.org/ns#" xmlns:dc="http://purl.org/dc/elements/1.1/" xmlns:rdf="http://www.w3.org/1999/02/22-rdf-syntax-ns#">
   <cc:Work>
    <dc:type rdf:resource="http://purl.org/dc/dcmitype/StillImage"/>
    <dc:date>2022-07-03T17:35:17.130910</dc:date>
    <dc:format>image/svg+xml</dc:format>
    <dc:creator>
     <cc:Agent>
      <dc:title>Matplotlib v3.4.2, https://matplotlib.org/</dc:title>
     </cc:Agent>
    </dc:creator>
   </cc:Work>
  </rdf:RDF>
 </metadata>
 <defs>
  <style type="text/css">*{stroke-linecap:butt;stroke-linejoin:round;}</style>
 </defs>
 <g id="figure_1">
  <g id="patch_1">
   <path d="M 0 313.771687 
L 417.367188 313.771687 
L 417.367188 0 
L 0 0 
z
" style="fill:#ffffff;"/>
  </g>
  <g id="axes_1">
   <g id="patch_2">
    <path d="M 53.047188 273.312 
L 410.167188 273.312 
L 410.167188 7.2 
L 53.047188 7.2 
z
" style="fill:#ffffff;"/>
   </g>
   <g id="matplotlib.axis_1">
    <g id="xtick_1">
     <g id="line2d_1">
      <defs>
       <path d="M 0 0 
L 0 3.5 
" id="m2416d2cc7c" style="stroke:#000000;stroke-width:0.8;"/>
      </defs>
      <g>
       <use style="stroke:#000000;stroke-width:0.8;" x="69.279915" xlink:href="#m2416d2cc7c" y="273.312"/>
      </g>
     </g>
     <g id="text_1">
      <!-- 0 -->
      <g transform="translate(66.098665 287.910437)scale(0.1 -0.1)">
       <defs>
        <path d="M 2034 4250 
Q 1547 4250 1301 3770 
Q 1056 3291 1056 2328 
Q 1056 1369 1301 889 
Q 1547 409 2034 409 
Q 2525 409 2770 889 
Q 3016 1369 3016 2328 
Q 3016 3291 2770 3770 
Q 2525 4250 2034 4250 
z
M 2034 4750 
Q 2819 4750 3233 4129 
Q 3647 3509 3647 2328 
Q 3647 1150 3233 529 
Q 2819 -91 2034 -91 
Q 1250 -91 836 529 
Q 422 1150 422 2328 
Q 422 3509 836 4129 
Q 1250 4750 2034 4750 
z
" id="DejaVuSans-30" transform="scale(0.015625)"/>
       </defs>
       <use xlink:href="#DejaVuSans-30"/>
      </g>
     </g>
    </g>
    <g id="xtick_2">
     <g id="line2d_2">
      <g>
       <use style="stroke:#000000;stroke-width:0.8;" x="134.210824" xlink:href="#m2416d2cc7c" y="273.312"/>
      </g>
     </g>
     <g id="text_2">
      <!-- 100 -->
      <g transform="translate(124.667074 287.910437)scale(0.1 -0.1)">
       <defs>
        <path d="M 794 531 
L 1825 531 
L 1825 4091 
L 703 3866 
L 703 4441 
L 1819 4666 
L 2450 4666 
L 2450 531 
L 3481 531 
L 3481 0 
L 794 0 
L 794 531 
z
" id="DejaVuSans-31" transform="scale(0.015625)"/>
       </defs>
       <use xlink:href="#DejaVuSans-31"/>
       <use x="63.623047" xlink:href="#DejaVuSans-30"/>
       <use x="127.246094" xlink:href="#DejaVuSans-30"/>
      </g>
     </g>
    </g>
    <g id="xtick_3">
     <g id="line2d_3">
      <g>
       <use style="stroke:#000000;stroke-width:0.8;" x="199.141733" xlink:href="#m2416d2cc7c" y="273.312"/>
      </g>
     </g>
     <g id="text_3">
      <!-- 200 -->
      <g transform="translate(189.597983 287.910437)scale(0.1 -0.1)">
       <defs>
        <path d="M 1228 531 
L 3431 531 
L 3431 0 
L 469 0 
L 469 531 
Q 828 903 1448 1529 
Q 2069 2156 2228 2338 
Q 2531 2678 2651 2914 
Q 2772 3150 2772 3378 
Q 2772 3750 2511 3984 
Q 2250 4219 1831 4219 
Q 1534 4219 1204 4116 
Q 875 4013 500 3803 
L 500 4441 
Q 881 4594 1212 4672 
Q 1544 4750 1819 4750 
Q 2544 4750 2975 4387 
Q 3406 4025 3406 3419 
Q 3406 3131 3298 2873 
Q 3191 2616 2906 2266 
Q 2828 2175 2409 1742 
Q 1991 1309 1228 531 
z
" id="DejaVuSans-32" transform="scale(0.015625)"/>
       </defs>
       <use xlink:href="#DejaVuSans-32"/>
       <use x="63.623047" xlink:href="#DejaVuSans-30"/>
       <use x="127.246094" xlink:href="#DejaVuSans-30"/>
      </g>
     </g>
    </g>
    <g id="xtick_4">
     <g id="line2d_4">
      <g>
       <use style="stroke:#000000;stroke-width:0.8;" x="264.072642" xlink:href="#m2416d2cc7c" y="273.312"/>
      </g>
     </g>
     <g id="text_4">
      <!-- 300 -->
      <g transform="translate(254.528892 287.910437)scale(0.1 -0.1)">
       <defs>
        <path d="M 2597 2516 
Q 3050 2419 3304 2112 
Q 3559 1806 3559 1356 
Q 3559 666 3084 287 
Q 2609 -91 1734 -91 
Q 1441 -91 1130 -33 
Q 819 25 488 141 
L 488 750 
Q 750 597 1062 519 
Q 1375 441 1716 441 
Q 2309 441 2620 675 
Q 2931 909 2931 1356 
Q 2931 1769 2642 2001 
Q 2353 2234 1838 2234 
L 1294 2234 
L 1294 2753 
L 1863 2753 
Q 2328 2753 2575 2939 
Q 2822 3125 2822 3475 
Q 2822 3834 2567 4026 
Q 2313 4219 1838 4219 
Q 1578 4219 1281 4162 
Q 984 4106 628 3988 
L 628 4550 
Q 988 4650 1302 4700 
Q 1616 4750 1894 4750 
Q 2613 4750 3031 4423 
Q 3450 4097 3450 3541 
Q 3450 3153 3228 2886 
Q 3006 2619 2597 2516 
z
" id="DejaVuSans-33" transform="scale(0.015625)"/>
       </defs>
       <use xlink:href="#DejaVuSans-33"/>
       <use x="63.623047" xlink:href="#DejaVuSans-30"/>
       <use x="127.246094" xlink:href="#DejaVuSans-30"/>
      </g>
     </g>
    </g>
    <g id="xtick_5">
     <g id="line2d_5">
      <g>
       <use style="stroke:#000000;stroke-width:0.8;" x="329.003551" xlink:href="#m2416d2cc7c" y="273.312"/>
      </g>
     </g>
     <g id="text_5">
      <!-- 400 -->
      <g transform="translate(319.459801 287.910437)scale(0.1 -0.1)">
       <defs>
        <path d="M 2419 4116 
L 825 1625 
L 2419 1625 
L 2419 4116 
z
M 2253 4666 
L 3047 4666 
L 3047 1625 
L 3713 1625 
L 3713 1100 
L 3047 1100 
L 3047 0 
L 2419 0 
L 2419 1100 
L 313 1100 
L 313 1709 
L 2253 4666 
z
" id="DejaVuSans-34" transform="scale(0.015625)"/>
       </defs>
       <use xlink:href="#DejaVuSans-34"/>
       <use x="63.623047" xlink:href="#DejaVuSans-30"/>
       <use x="127.246094" xlink:href="#DejaVuSans-30"/>
      </g>
     </g>
    </g>
    <g id="xtick_6">
     <g id="line2d_6">
      <g>
       <use style="stroke:#000000;stroke-width:0.8;" x="393.93446" xlink:href="#m2416d2cc7c" y="273.312"/>
      </g>
     </g>
     <g id="text_6">
      <!-- 500 -->
      <g transform="translate(384.39071 287.910437)scale(0.1 -0.1)">
       <defs>
        <path d="M 691 4666 
L 3169 4666 
L 3169 4134 
L 1269 4134 
L 1269 2991 
Q 1406 3038 1543 3061 
Q 1681 3084 1819 3084 
Q 2600 3084 3056 2656 
Q 3513 2228 3513 1497 
Q 3513 744 3044 326 
Q 2575 -91 1722 -91 
Q 1428 -91 1123 -41 
Q 819 9 494 109 
L 494 744 
Q 775 591 1075 516 
Q 1375 441 1709 441 
Q 2250 441 2565 725 
Q 2881 1009 2881 1497 
Q 2881 1984 2565 2268 
Q 2250 2553 1709 2553 
Q 1456 2553 1204 2497 
Q 953 2441 691 2322 
L 691 4666 
z
" id="DejaVuSans-35" transform="scale(0.015625)"/>
       </defs>
       <use xlink:href="#DejaVuSans-35"/>
       <use x="63.623047" xlink:href="#DejaVuSans-30"/>
       <use x="127.246094" xlink:href="#DejaVuSans-30"/>
      </g>
     </g>
    </g>
    <g id="text_7">
     <!-- Iterations -->
     <g transform="translate(195.785078 303.868094)scale(0.13 -0.13)">
      <defs>
       <path d="M 588 4666 
L 1791 4666 
L 1791 0 
L 588 0 
L 588 4666 
z
" id="DejaVuSans-Bold-49" transform="scale(0.015625)"/>
       <path d="M 1759 4494 
L 1759 3500 
L 2913 3500 
L 2913 2700 
L 1759 2700 
L 1759 1216 
Q 1759 972 1856 886 
Q 1953 800 2241 800 
L 2816 800 
L 2816 0 
L 1856 0 
Q 1194 0 917 276 
Q 641 553 641 1216 
L 641 2700 
L 84 2700 
L 84 3500 
L 641 3500 
L 641 4494 
L 1759 4494 
z
" id="DejaVuSans-Bold-74" transform="scale(0.015625)"/>
       <path d="M 4031 1759 
L 4031 1441 
L 1416 1441 
Q 1456 1047 1700 850 
Q 1944 653 2381 653 
Q 2734 653 3104 758 
Q 3475 863 3866 1075 
L 3866 213 
Q 3469 63 3072 -14 
Q 2675 -91 2278 -91 
Q 1328 -91 801 392 
Q 275 875 275 1747 
Q 275 2603 792 3093 
Q 1309 3584 2216 3584 
Q 3041 3584 3536 3087 
Q 4031 2591 4031 1759 
z
M 2881 2131 
Q 2881 2450 2695 2645 
Q 2509 2841 2209 2841 
Q 1884 2841 1681 2658 
Q 1478 2475 1428 2131 
L 2881 2131 
z
" id="DejaVuSans-Bold-65" transform="scale(0.015625)"/>
       <path d="M 3138 2547 
Q 2991 2616 2845 2648 
Q 2700 2681 2553 2681 
Q 2122 2681 1889 2404 
Q 1656 2128 1656 1613 
L 1656 0 
L 538 0 
L 538 3500 
L 1656 3500 
L 1656 2925 
Q 1872 3269 2151 3426 
Q 2431 3584 2822 3584 
Q 2878 3584 2943 3579 
Q 3009 3575 3134 3559 
L 3138 2547 
z
" id="DejaVuSans-Bold-72" transform="scale(0.015625)"/>
       <path d="M 2106 1575 
Q 1756 1575 1579 1456 
Q 1403 1338 1403 1106 
Q 1403 894 1545 773 
Q 1688 653 1941 653 
Q 2256 653 2472 879 
Q 2688 1106 2688 1447 
L 2688 1575 
L 2106 1575 
z
M 3816 1997 
L 3816 0 
L 2688 0 
L 2688 519 
Q 2463 200 2181 54 
Q 1900 -91 1497 -91 
Q 953 -91 614 226 
Q 275 544 275 1050 
Q 275 1666 698 1953 
Q 1122 2241 2028 2241 
L 2688 2241 
L 2688 2328 
Q 2688 2594 2478 2717 
Q 2269 2841 1825 2841 
Q 1466 2841 1156 2769 
Q 847 2697 581 2553 
L 581 3406 
Q 941 3494 1303 3539 
Q 1666 3584 2028 3584 
Q 2975 3584 3395 3211 
Q 3816 2838 3816 1997 
z
" id="DejaVuSans-Bold-61" transform="scale(0.015625)"/>
       <path d="M 538 3500 
L 1656 3500 
L 1656 0 
L 538 0 
L 538 3500 
z
M 538 4863 
L 1656 4863 
L 1656 3950 
L 538 3950 
L 538 4863 
z
" id="DejaVuSans-Bold-69" transform="scale(0.015625)"/>
       <path d="M 2203 2784 
Q 1831 2784 1636 2517 
Q 1441 2250 1441 1747 
Q 1441 1244 1636 976 
Q 1831 709 2203 709 
Q 2569 709 2762 976 
Q 2956 1244 2956 1747 
Q 2956 2250 2762 2517 
Q 2569 2784 2203 2784 
z
M 2203 3584 
Q 3106 3584 3614 3096 
Q 4122 2609 4122 1747 
Q 4122 884 3614 396 
Q 3106 -91 2203 -91 
Q 1297 -91 786 396 
Q 275 884 275 1747 
Q 275 2609 786 3096 
Q 1297 3584 2203 3584 
z
" id="DejaVuSans-Bold-6f" transform="scale(0.015625)"/>
       <path d="M 4056 2131 
L 4056 0 
L 2931 0 
L 2931 347 
L 2931 1631 
Q 2931 2084 2911 2256 
Q 2891 2428 2841 2509 
Q 2775 2619 2662 2680 
Q 2550 2741 2406 2741 
Q 2056 2741 1856 2470 
Q 1656 2200 1656 1722 
L 1656 0 
L 538 0 
L 538 3500 
L 1656 3500 
L 1656 2988 
Q 1909 3294 2193 3439 
Q 2478 3584 2822 3584 
Q 3428 3584 3742 3212 
Q 4056 2841 4056 2131 
z
" id="DejaVuSans-Bold-6e" transform="scale(0.015625)"/>
       <path d="M 3272 3391 
L 3272 2541 
Q 2913 2691 2578 2766 
Q 2244 2841 1947 2841 
Q 1628 2841 1473 2761 
Q 1319 2681 1319 2516 
Q 1319 2381 1436 2309 
Q 1553 2238 1856 2203 
L 2053 2175 
Q 2913 2066 3209 1816 
Q 3506 1566 3506 1031 
Q 3506 472 3093 190 
Q 2681 -91 1863 -91 
Q 1516 -91 1145 -36 
Q 775 19 384 128 
L 384 978 
Q 719 816 1070 734 
Q 1422 653 1784 653 
Q 2113 653 2278 743 
Q 2444 834 2444 1013 
Q 2444 1163 2330 1236 
Q 2216 1309 1875 1350 
L 1678 1375 
Q 931 1469 631 1722 
Q 331 1975 331 2491 
Q 331 3047 712 3315 
Q 1094 3584 1881 3584 
Q 2191 3584 2531 3537 
Q 2872 3491 3272 3391 
z
" id="DejaVuSans-Bold-73" transform="scale(0.015625)"/>
      </defs>
      <use xlink:href="#DejaVuSans-Bold-49"/>
      <use x="37.207031" xlink:href="#DejaVuSans-Bold-74"/>
      <use x="85.009766" xlink:href="#DejaVuSans-Bold-65"/>
      <use x="152.832031" xlink:href="#DejaVuSans-Bold-72"/>
      <use x="202.148438" xlink:href="#DejaVuSans-Bold-61"/>
      <use x="269.628906" xlink:href="#DejaVuSans-Bold-74"/>
      <use x="317.431641" xlink:href="#DejaVuSans-Bold-69"/>
      <use x="351.708984" xlink:href="#DejaVuSans-Bold-6f"/>
      <use x="420.410156" xlink:href="#DejaVuSans-Bold-6e"/>
      <use x="491.601562" xlink:href="#DejaVuSans-Bold-73"/>
     </g>
    </g>
   </g>
   <g id="matplotlib.axis_2">
    <g id="ytick_1">
     <g id="line2d_7">
      <defs>
       <path d="M 0 0 
L -3.5 0 
" id="mc5b65b7568" style="stroke:#000000;stroke-width:0.8;"/>
      </defs>
      <g>
       <use style="stroke:#000000;stroke-width:0.8;" x="53.047188" xlink:href="#mc5b65b7568" y="265.228254"/>
      </g>
     </g>
     <g id="text_8">
      <!-- 0.0 -->
      <g transform="translate(30.144063 269.027473)scale(0.1 -0.1)">
       <defs>
        <path d="M 684 794 
L 1344 794 
L 1344 0 
L 684 0 
L 684 794 
z
" id="DejaVuSans-2e" transform="scale(0.015625)"/>
       </defs>
       <use xlink:href="#DejaVuSans-30"/>
       <use x="63.623047" xlink:href="#DejaVuSans-2e"/>
       <use x="95.410156" xlink:href="#DejaVuSans-30"/>
      </g>
     </g>
    </g>
    <g id="ytick_2">
     <g id="line2d_8">
      <g>
       <use style="stroke:#000000;stroke-width:0.8;" x="53.047188" xlink:href="#mc5b65b7568" y="232.111979"/>
      </g>
     </g>
     <g id="text_9">
      <!-- 2.5 -->
      <g transform="translate(30.144063 235.911198)scale(0.1 -0.1)">
       <use xlink:href="#DejaVuSans-32"/>
       <use x="63.623047" xlink:href="#DejaVuSans-2e"/>
       <use x="95.410156" xlink:href="#DejaVuSans-35"/>
      </g>
     </g>
    </g>
    <g id="ytick_3">
     <g id="line2d_9">
      <g>
       <use style="stroke:#000000;stroke-width:0.8;" x="53.047188" xlink:href="#mc5b65b7568" y="198.995704"/>
      </g>
     </g>
     <g id="text_10">
      <!-- 5.0 -->
      <g transform="translate(30.144063 202.794923)scale(0.1 -0.1)">
       <use xlink:href="#DejaVuSans-35"/>
       <use x="63.623047" xlink:href="#DejaVuSans-2e"/>
       <use x="95.410156" xlink:href="#DejaVuSans-30"/>
      </g>
     </g>
    </g>
    <g id="ytick_4">
     <g id="line2d_10">
      <g>
       <use style="stroke:#000000;stroke-width:0.8;" x="53.047188" xlink:href="#mc5b65b7568" y="165.879429"/>
      </g>
     </g>
     <g id="text_11">
      <!-- 7.5 -->
      <g transform="translate(30.144063 169.678648)scale(0.1 -0.1)">
       <defs>
        <path d="M 525 4666 
L 3525 4666 
L 3525 4397 
L 1831 0 
L 1172 0 
L 2766 4134 
L 525 4134 
L 525 4666 
z
" id="DejaVuSans-37" transform="scale(0.015625)"/>
       </defs>
       <use xlink:href="#DejaVuSans-37"/>
       <use x="63.623047" xlink:href="#DejaVuSans-2e"/>
       <use x="95.410156" xlink:href="#DejaVuSans-35"/>
      </g>
     </g>
    </g>
    <g id="ytick_5">
     <g id="line2d_11">
      <g>
       <use style="stroke:#000000;stroke-width:0.8;" x="53.047188" xlink:href="#mc5b65b7568" y="132.763154"/>
      </g>
     </g>
     <g id="text_12">
      <!-- 10.0 -->
      <g transform="translate(23.781563 136.562373)scale(0.1 -0.1)">
       <use xlink:href="#DejaVuSans-31"/>
       <use x="63.623047" xlink:href="#DejaVuSans-30"/>
       <use x="127.246094" xlink:href="#DejaVuSans-2e"/>
       <use x="159.033203" xlink:href="#DejaVuSans-30"/>
      </g>
     </g>
    </g>
    <g id="ytick_6">
     <g id="line2d_12">
      <g>
       <use style="stroke:#000000;stroke-width:0.8;" x="53.047188" xlink:href="#mc5b65b7568" y="99.646879"/>
      </g>
     </g>
     <g id="text_13">
      <!-- 12.5 -->
      <g transform="translate(23.781563 103.446098)scale(0.1 -0.1)">
       <use xlink:href="#DejaVuSans-31"/>
       <use x="63.623047" xlink:href="#DejaVuSans-32"/>
       <use x="127.246094" xlink:href="#DejaVuSans-2e"/>
       <use x="159.033203" xlink:href="#DejaVuSans-35"/>
      </g>
     </g>
    </g>
    <g id="ytick_7">
     <g id="line2d_13">
      <g>
       <use style="stroke:#000000;stroke-width:0.8;" x="53.047188" xlink:href="#mc5b65b7568" y="66.530604"/>
      </g>
     </g>
     <g id="text_14">
      <!-- 15.0 -->
      <g transform="translate(23.781563 70.329823)scale(0.1 -0.1)">
       <use xlink:href="#DejaVuSans-31"/>
       <use x="63.623047" xlink:href="#DejaVuSans-35"/>
       <use x="127.246094" xlink:href="#DejaVuSans-2e"/>
       <use x="159.033203" xlink:href="#DejaVuSans-30"/>
      </g>
     </g>
    </g>
    <g id="ytick_8">
     <g id="line2d_14">
      <g>
       <use style="stroke:#000000;stroke-width:0.8;" x="53.047188" xlink:href="#mc5b65b7568" y="33.414329"/>
      </g>
     </g>
     <g id="text_15">
      <!-- 17.5 -->
      <g transform="translate(23.781563 37.213547)scale(0.1 -0.1)">
       <use xlink:href="#DejaVuSans-31"/>
       <use x="63.623047" xlink:href="#DejaVuSans-37"/>
       <use x="127.246094" xlink:href="#DejaVuSans-2e"/>
       <use x="159.033203" xlink:href="#DejaVuSans-35"/>
      </g>
     </g>
    </g>
    <g id="text_16">
     <!-- Loss -->
     <g transform="translate(17.077969 156.600453)rotate(-90)scale(0.13 -0.13)">
      <defs>
       <path d="M 588 4666 
L 1791 4666 
L 1791 909 
L 3903 909 
L 3903 0 
L 588 0 
L 588 4666 
z
" id="DejaVuSans-Bold-4c" transform="scale(0.015625)"/>
      </defs>
      <use xlink:href="#DejaVuSans-Bold-4c"/>
      <use x="63.720703" xlink:href="#DejaVuSans-Bold-6f"/>
      <use x="132.421875" xlink:href="#DejaVuSans-Bold-73"/>
      <use x="191.943359" xlink:href="#DejaVuSans-Bold-73"/>
     </g>
    </g>
   </g>
   <g id="line2d_15">
    <path clip-path="url(#p55ca9323a6)" d="M 69.279915 55.808732 
L 69.930525 45.001564 
L 70.581135 47.898075 
L 71.231746 43.984694 
L 71.882356 28.59449 
L 72.532966 21.753697 
L 73.183577 19.296 
L 73.834187 60.837784 
L 74.484797 60.102299 
L 75.135408 51.125139 
L 75.786018 54.767772 
L 76.436628 48.674188 
L 77.087239 44.599182 
L 78.388459 92.560276 
L 79.039069 46.608337 
L 79.68968 71.301276 
L 80.34029 67.034415 
L 80.9909 59.064371 
L 81.641511 60.691925 
L 82.292121 58.132571 
L 82.942731 55.071643 
L 83.593342 62.280999 
L 84.243952 75.449666 
L 84.894562 93.215378 
L 85.545173 83.992989 
L 86.195783 90.911233 
L 86.846393 76.577982 
L 87.497003 97.271258 
L 88.147614 108.40232 
L 88.798224 96.815616 
L 89.448834 97.464566 
L 90.099445 111.342883 
L 90.750055 114.456894 
L 91.400665 105.753021 
L 92.051276 154.916232 
L 92.701886 126.182219 
L 93.352496 147.870838 
L 94.003107 153.824551 
L 94.653717 149.921251 
L 95.304327 155.288308 
L 95.954938 179.185244 
L 96.605548 181.575614 
L 97.256158 167.808403 
L 97.906768 185.519744 
L 98.557379 180.471919 
L 99.858599 217.190447 
L 100.50921 225.674522 
L 101.15982 201.151141 
L 101.81043 225.668206 
L 102.461041 223.787079 
L 103.111651 233.101707 
L 103.762261 226.227797 
L 104.412872 199.868685 
L 105.063482 225.190703 
L 105.714092 222.108216 
L 106.364703 212.040303 
L 107.015313 193.78959 
L 107.665923 204.678544 
L 108.316533 236.907134 
L 108.967144 232.099138 
L 109.617754 235.766583 
L 110.268364 231.523433 
L 110.918975 249.339289 
L 111.569585 240.483151 
L 112.220195 233.857328 
L 112.870806 236.998236 
L 113.521416 250.135601 
L 114.172026 220.814283 
L 114.822637 233.557551 
L 115.473247 240.214899 
L 116.123857 242.183486 
L 116.774468 243.729224 
L 117.425078 241.048277 
L 118.075688 247.438105 
L 118.726298 251.073613 
L 119.376909 241.330516 
L 120.027519 233.982049 
L 120.678129 241.834106 
L 121.32874 247.080981 
L 121.97935 249.632475 
L 122.62996 247.451687 
L 123.280571 250.298697 
L 123.931181 246.148043 
L 124.581791 247.75958 
L 125.232402 250.691503 
L 125.883012 248.46435 
L 126.533622 252.510889 
L 127.184232 243.472811 
L 127.834843 251.766482 
L 128.485453 253.266873 
L 129.136063 254.293805 
L 129.786674 244.637235 
L 130.437284 251.183942 
L 131.087894 244.966702 
L 131.738505 252.750966 
L 132.389115 251.667709 
L 133.039725 246.73265 
L 133.690336 249.888035 
L 134.991556 254.869451 
L 135.642167 253.474644 
L 136.292777 246.346958 
L 136.943387 255.081105 
L 138.244608 246.343424 
L 138.895218 254.424179 
L 139.545828 246.214828 
L 140.196439 252.500975 
L 140.847049 254.445629 
L 141.497659 248.432723 
L 142.14827 254.75416 
L 142.79888 254.407477 
L 143.44949 251.526723 
L 144.100101 247.765885 
L 144.750711 247.16961 
L 145.401321 251.600434 
L 146.051932 247.031822 
L 146.702542 244.349209 
L 147.353152 246.568242 
L 148.654373 258.7313 
L 149.304983 251.05709 
L 149.955593 254.052295 
L 150.606204 247.884191 
L 151.256814 253.852686 
L 151.907424 255.04552 
L 153.208645 259.540722 
L 153.859255 247.906585 
L 154.509866 255.12483 
L 155.160476 258.807527 
L 155.811086 250.619782 
L 156.461697 257.139966 
L 157.112307 254.446773 
L 157.762917 248.051701 
L 158.413527 254.608044 
L 159.064138 254.549065 
L 159.714748 245.80758 
L 160.365358 252.735873 
L 161.015969 251.991926 
L 161.666579 251.7682 
L 162.317189 259.204002 
L 162.9678 250.761467 
L 163.61841 257.940263 
L 164.26902 257.751587 
L 164.919631 248.120441 
L 165.570241 251.422091 
L 166.871462 254.440761 
L 167.522072 251.832399 
L 168.172682 256.012031 
L 168.823292 254.678059 
L 169.473903 256.417386 
L 170.124513 254.565299 
L 170.775123 256.164675 
L 171.425734 249.98108 
L 172.076344 253.69402 
L 173.377565 255.511934 
L 174.028175 252.874321 
L 174.678785 255.275745 
L 175.329396 255.750571 
L 175.980006 252.268967 
L 177.281226 257.477973 
L 177.931837 254.675202 
L 178.582447 254.953569 
L 179.233057 253.232864 
L 179.883668 250.601076 
L 180.534278 256.612477 
L 181.184888 256.61149 
L 182.486109 245.024998 
L 183.136719 257.175217 
L 183.78733 250.004873 
L 184.43794 252.615211 
L 185.08855 253.511199 
L 185.739161 257.130879 
L 186.389771 249.129844 
L 187.040381 255.66355 
L 187.690991 254.681462 
L 188.341602 248.895351 
L 188.992212 255.475166 
L 189.642822 257.931151 
L 190.293433 252.116556 
L 190.944043 256.685282 
L 191.594653 257.445658 
L 192.245264 248.347398 
L 192.895874 253.619019 
L 193.546484 253.721345 
L 194.197095 258.580353 
L 194.847705 250.878645 
L 195.498315 255.703146 
L 196.148926 257.932316 
L 196.799536 257.530561 
L 197.450146 255.951507 
L 198.100756 255.500099 
L 198.751367 257.276028 
L 199.401977 256.091183 
L 200.052587 253.734741 
L 200.703198 254.524089 
L 201.353808 257.28854 
L 202.004418 252.535836 
L 202.655029 253.718929 
L 203.305639 250.860084 
L 203.956249 256.283231 
L 204.60686 252.185535 
L 205.25747 254.59662 
L 205.90808 253.186911 
L 206.558691 255.932538 
L 207.209301 254.150422 
L 207.859911 257.703707 
L 208.510521 255.438014 
L 209.161132 255.391414 
L 209.811742 259.551845 
L 210.462352 255.974521 
L 211.112963 253.624016 
L 211.763573 254.990999 
L 212.414183 255.176152 
L 213.064794 256.31459 
L 213.715404 255.457752 
L 214.366014 255.983732 
L 215.016625 252.380098 
L 215.667235 257.552345 
L 216.317845 248.631029 
L 216.968455 251.891323 
L 217.619066 258.046793 
L 218.269676 253.793116 
L 218.920286 254.604573 
L 219.570897 257.068722 
L 220.221507 255.738752 
L 220.872117 253.705209 
L 221.522728 252.718737 
L 222.173338 252.49376 
L 222.823948 254.964325 
L 223.474559 252.629626 
L 224.125169 254.977602 
L 224.775779 259.083816 
L 225.42639 255.135547 
L 226.077 258.587895 
L 226.72761 253.924867 
L 227.37822 253.178041 
L 228.028831 255.743609 
L 228.679441 249.712937 
L 229.980662 256.851647 
L 230.631272 247.743358 
L 231.281882 256.934584 
L 231.932493 257.865778 
L 232.583103 256.094162 
L 233.233713 256.994797 
L 233.884324 252.746031 
L 234.534934 253.515645 
L 235.185544 258.385249 
L 235.836155 259.051672 
L 236.486765 260.55346 
L 237.137375 258.408985 
L 237.787985 261.216 
L 238.438596 256.554513 
L 239.089206 259.893874 
L 239.739816 258.858895 
L 240.390427 255.863814 
L 241.041037 254.516267 
L 241.691647 252.844076 
L 242.342258 254.515996 
L 242.992868 254.104288 
L 243.643478 255.038934 
L 244.294089 255.607024 
L 244.944699 257.362582 
L 245.595309 257.207165 
L 246.24592 257.615514 
L 246.89653 259.621353 
L 247.54714 255.241154 
L 248.19775 252.580924 
L 248.848361 256.660207 
L 249.498971 256.09539 
L 250.149581 258.17861 
L 250.800192 256.179792 
L 251.450802 254.749514 
L 252.101412 259.552457 
L 252.752023 255.144961 
L 253.402633 251.839786 
L 254.053243 256.583866 
L 254.703854 255.014637 
L 255.354464 251.559082 
L 256.005074 253.678407 
L 256.655684 256.945734 
L 257.306295 252.761118 
L 257.956905 257.002511 
L 258.607515 254.43474 
L 259.258126 258.977072 
L 259.908736 252.493587 
L 260.559346 251.862503 
L 261.209957 252.876208 
L 261.860567 255.722821 
L 262.511177 255.150088 
L 263.161788 255.968949 
L 263.812398 254.44831 
L 264.463008 258.62983 
L 265.113619 253.719128 
L 265.764229 259.481944 
L 266.414839 255.590653 
L 267.065449 256.167528 
L 267.71606 257.803354 
L 268.36667 258.807345 
L 269.01728 256.645686 
L 269.667891 258.090671 
L 270.318501 252.357741 
L 270.969111 258.934881 
L 271.619722 259.123361 
L 272.270332 256.049757 
L 272.920942 254.606062 
L 273.571553 255.937312 
L 274.222163 255.84993 
L 274.872773 256.484863 
L 275.523384 258.52474 
L 276.173994 257.577662 
L 276.824604 253.82936 
L 277.475214 258.149966 
L 278.125825 256.262896 
L 278.776435 258.197957 
L 279.427045 259.004437 
L 280.077656 252.883163 
L 280.728266 259.304438 
L 281.378876 253.716166 
L 282.029487 256.919567 
L 282.680097 257.194181 
L 283.330707 259.896169 
L 283.981318 254.473737 
L 284.631928 256.317787 
L 285.282538 251.916049 
L 285.933149 258.639846 
L 286.583759 260.142278 
L 287.234369 250.042672 
L 287.884979 256.642896 
L 288.53559 257.748718 
L 289.1862 255.848855 
L 289.83681 258.716345 
L 290.487421 258.56489 
L 291.138031 252.000891 
L 291.788641 258.136782 
L 292.439252 249.825423 
L 293.089862 257.107731 
L 293.740472 254.269762 
L 294.391083 250.434834 
L 295.041693 258.274514 
L 295.692303 255.105882 
L 296.342913 255.512588 
L 296.993524 254.13136 
L 297.644134 253.795946 
L 298.294744 254.075411 
L 298.945355 257.385234 
L 299.595965 258.055914 
L 300.246575 255.865523 
L 300.897186 257.868423 
L 301.547796 254.605525 
L 302.198406 256.428583 
L 302.849017 258.933521 
L 303.499627 258.138483 
L 304.150237 253.889893 
L 304.800848 260.639948 
L 305.451458 257.572272 
L 306.102068 258.302604 
L 306.752678 258.029656 
L 307.403289 258.273966 
L 308.053899 254.127359 
L 308.704509 254.495521 
L 309.35512 257.838263 
L 310.00573 256.0519 
L 310.65634 256.280943 
L 311.306951 257.365121 
L 311.957561 259.382924 
L 313.258782 257.848059 
L 313.909392 253.310641 
L 314.560002 257.97389 
L 315.210613 256.787857 
L 315.861223 256.942298 
L 316.511833 257.535913 
L 317.162443 260.868947 
L 317.813054 255.557602 
L 318.463664 256.267223 
L 319.114274 260.466199 
L 319.764885 254.302695 
L 320.415495 256.102386 
L 321.066105 253.808822 
L 321.716716 258.312547 
L 322.367326 256.845495 
L 323.017936 258.479918 
L 323.668547 258.708528 
L 324.319157 257.525661 
L 324.969767 255.391603 
L 325.620378 255.746805 
L 326.270988 255.512827 
L 326.921598 253.131517 
L 327.572208 258.487186 
L 328.222819 257.057944 
L 328.873429 255.979503 
L 329.524039 257.711958 
L 330.17465 258.079051 
L 330.82526 253.312546 
L 331.47587 258.490727 
L 332.126481 251.709806 
L 332.777091 256.308334 
L 333.427701 255.906005 
L 334.078312 259.072331 
L 334.728922 257.959471 
L 335.379532 253.712635 
L 336.030143 255.553019 
L 336.680753 255.519671 
L 337.331363 257.96732 
L 337.981973 258.258006 
L 338.632584 257.153717 
L 339.283194 257.57887 
L 339.933804 260.109456 
L 340.584415 256.605699 
L 341.235025 257.252044 
L 341.885635 260.188321 
L 342.536246 258.027436 
L 343.186856 260.018763 
L 343.837466 259.845932 
L 344.488077 255.360886 
L 345.138687 255.12676 
L 345.789297 256.819622 
L 346.439907 256.882291 
L 347.090518 257.322061 
L 347.741128 257.479316 
L 348.391738 258.720957 
L 349.042349 255.526243 
L 349.692959 259.899889 
L 350.343569 256.836638 
L 350.99418 256.35026 
L 351.64479 256.389531 
L 352.2954 253.335186 
L 352.946011 257.027558 
L 353.596621 259.238124 
L 354.247231 259.147754 
L 354.897842 259.260803 
L 355.548452 257.9482 
L 356.199062 255.984091 
L 356.849672 259.410764 
L 357.500283 258.172717 
L 358.150893 255.226759 
L 358.801503 258.544516 
L 359.452114 257.467465 
L 360.102724 254.383528 
L 360.753334 256.853945 
L 361.403945 256.819504 
L 362.054555 257.972201 
L 362.705165 255.434554 
L 363.355776 256.897906 
L 364.006386 257.759624 
L 364.656996 257.284319 
L 365.307607 257.630251 
L 365.958217 255.366641 
L 366.608827 257.882656 
L 367.259437 250.862933 
L 367.910048 258.080216 
L 369.211268 257.566365 
L 369.861879 255.352611 
L 370.512489 259.156851 
L 371.163099 251.53866 
L 371.81371 255.907777 
L 372.46432 256.297198 
L 373.11493 255.32628 
L 373.765541 258.641922 
L 374.416151 251.904502 
L 375.066761 257.08164 
L 375.717372 257.536831 
L 376.367982 259.169927 
L 377.018592 260.310136 
L 377.669202 256.891473 
L 378.319813 256.800492 
L 378.970423 256.27638 
L 379.621033 259.131504 
L 380.271644 253.006549 
L 380.922254 255.618505 
L 381.572864 259.451709 
L 382.223475 254.370744 
L 382.874085 256.041957 
L 383.524695 260.278166 
L 384.175306 258.015304 
L 384.825916 258.677738 
L 385.476526 257.176999 
L 386.127136 258.178059 
L 386.777747 257.515483 
L 387.428357 259.254096 
L 388.078967 258.721265 
L 388.729578 260.510475 
L 389.380188 259.988465 
L 390.030798 256.866466 
L 390.681409 255.528739 
L 391.332019 258.259233 
L 391.982629 256.040582 
L 392.63324 259.315065 
L 393.28385 258.718063 
L 393.93446 259.087278 
L 393.93446 259.087278 
" style="fill:none;stroke:#ff0000;stroke-linecap:square;stroke-width:1.5;"/>
   </g>
   <g id="patch_3">
    <path d="M 53.047188 273.312 
L 53.047188 7.2 
" style="fill:none;stroke:#000000;stroke-linecap:square;stroke-linejoin:miter;stroke-width:0.8;"/>
   </g>
   <g id="patch_4">
    <path d="M 410.167188 273.312 
L 410.167188 7.2 
" style="fill:none;stroke:#000000;stroke-linecap:square;stroke-linejoin:miter;stroke-width:0.8;"/>
   </g>
   <g id="patch_5">
    <path d="M 53.047188 273.312 
L 410.167188 273.312 
" style="fill:none;stroke:#000000;stroke-linecap:square;stroke-linejoin:miter;stroke-width:0.8;"/>
   </g>
   <g id="patch_6">
    <path d="M 53.047188 7.2 
L 410.167188 7.2 
" style="fill:none;stroke:#000000;stroke-linecap:square;stroke-linejoin:miter;stroke-width:0.8;"/>
   </g>
  </g>
 </g>
 <defs>
  <clipPath id="p55ca9323a6">
   <rect height="266.112" width="357.12" x="53.047188" y="7.2"/>
  </clipPath>
 </defs>
</svg>
